# xmcd
#
# Track frame offsets:
#	150
#	17825
#	38806
#	60429
#	78002
#	100939
#	118668
#	134048
#	152941
#	172281
#	203894
#
# Disc length: 3377 seconds
#
# Revision: 1
# Processed by: cddbd v1.5.2PL0 Copyright (c) Steve Scherf et al.
# Submitted via: audiograbber 1.83.01
#
DISCID=950d2f0b
DTITLE=Carrie Underwood - KGR13008
DYEAR=1900
DGENRE=Karaoke
TTITLE0=Cowboy Casanova
TTITLE1=Temporary Home
TTITLE2=Wasted
TTITLE3=Jesus, Take The Wheel
TTITLE4=Just A Dream
TTITLE5=So Small
TTITLE6=Before He Cheats
TTITLE7=Don't Forget To Remember Me
TTITLE8=Last Name
TTITLE9=I Told You So
TTITLE10=Data Track
EXTD=
EXTT0=
EXTT1=
EXTT2=
EXTT3=
EXTT4=
EXTT5=
EXTT6=
EXTT7=
EXTT8=
EXTT9=
EXTT10=
PLAYORDER=
